#!OML:ASF X:\für Bonn\!DataBase\2005_08_11_Bastian_Final\c3d\Bastian.ASF
:FULLY-SPECIFIED
:DEGREES
61
root 2.71125 15.9115 -3.35921 172.934 -20.7821 -180.914
lowerback 15.2627 -8.38578 -5.31929
upperback 8.62218 -13.2062 1.63958
thorax 2.39654 -7.49843 6.13493
lowerneck -6.75189 -4.84888 -0.845437
upperneck -7.45213 -5.29383 10.9431
head -0.856555 -2.37642 3.60566
rclavicle 9.5193e-014 -2.78299e-014
rhumerus -10.501 30.0928 -81.9319
rradius 127.194
rwrist 6.96977
rhand -25.6316 14.5174
rfingers 7.12502
rthumb 0.901583 -15.4604
lclavicle 9.5193e-014 -2.78299e-014
lhumerus -3.52691 -45.7341 104.495
lradius 113.45
lwrist 47.239
lhand -9.0999 -19.0825
lfingers 7.12502
lthumb 16.8503 10.2064
rfemur -47.0856 -9.59223 26.7086
rtibia 52.2207
rfoot -204.828 -187.386
rtoes 0.036183
lfemur 30.0301 0.818804 -21.1429
ltibia 14.8689
lfoot -26.9479 -13.6042
ltoes -7.07992
62
root 2.65104 15.8672 -3.52191 172.936 -21.4276 -180.866
lowerback 14.7933 -8.59598 -5.28478
upperback 8.4818 -13.4204 1.7996
thorax 2.55586 -7.59266 6.2182
lowerneck -6.38204 -4.83341 -0.909257
upperneck -7.40118 -5.3048 10.7765
head -0.906019 -2.40299 3.56777
rclavicle 1.12959e-013 -4.73108e-014
rhumerus -9.04321 30.2479 -81.062
rradius 127.488
rwrist 6.94181
rhand -25.8844 14.3677
rfingers 7.12502
rthumb 0.65738 -15.611
lclavicle 1.12959e-013 -4.73108e-014
lhumerus -3.23934 -46.2623 104.69
lradius 113.434
lwrist 47.186
lhand -9.74992 -19.2756
lfingers 7.12502
lthumb 16.2245 10.0655
rfemur -46.9877 -9.35777 26.3292
rtibia 52.2089
rfoot -204.218 -186.968
rtoes 1.87309
lfemur 30.9859 0.484104 -20.997
ltibia 14.1375
lfoot -26.7031 -13.8049
ltoes -7.53079
63
root 2.59016 15.8198 -3.69209 172.938 -22.0479 -180.823
lowerback 14.2416 -8.78917 -5.25321
upperback 8.36282 -13.6134 1.95301
thorax 2.77878 -7.67947 6.27238
lowerneck -5.99981 -4.83485 -0.98707
upperneck -7.37307 -5.33203 10.6476
head -0.962539 -2.43687 3.54637
rclavicle -4.80065e-014 1.17283e-014
rhumerus -7.60949 30.3801 -80.2181
rradius 127.678
rwrist 7.00048
rhand -26.1858 14.2734
rfingers 7.12502
rthumb 0.366322 -15.706
lclavicle -4.80065e-014 1.17283e-014
lhumerus -2.95977 -46.7687 104.848
lradius 113.347
lwrist 47.2629
lhand -10.2637 -19.5378
lfingers 7.12502
lthumb 15.7297 9.84299
rfemur -46.9176 -9.1815 25.9898
rtibia 52.3642
rfoot -203.472 -186.507
rtoes 4.03432
lfemur 32.0196 0.133877 -20.8525
ltibia 13.2863
lfoot -26.1717 -14.1039
ltoes -7.17751
64
root 2.52891 15.7707 -3.86792 172.915 -22.6373 -180.741
lowerback 13.6415 -8.98959 -5.20271
upperback 8.24688 -13.8155 2.11369
thorax 3.03107 -7.77145 6.31124
lowerneck -5.60781 -4.81509 -1.08556
upperneck -7.30883 -5.33616 10.5177
head -1.01007 -2.4588 3.52878
rclavicle 4.2043e-014 -2.76311e-014
rhumerus -6.22252 30.5705 -79.4354
rradius 127.78
rwrist 7.07281
rhand -26.4943 14.1726
rfingers 7.12502
rthumb 0.0683422 -15.8072
lclavicle 4.2043e-014 -2.76311e-014
lhumerus -2.78743 -47.1909 105.075
lradius 113.222
lwrist 47.3235
lhand -10.7261 -19.8541
lfingers 7.12502
lthumb 15.2843 9.56116
rfemur -46.8335 -9.03664 25.7092
rtibia 52.6622
rfoot -202.688 -185.997
rtoes 6.46449
lfemur 33.141 -0.164999 -20.6076
ltibia 12.3199
lfoot -25.5258 -14.5042
ltoes -6.79
65
root 2.46562 15.7224 -4.04764 172.892 -23.1522 -180.639
lowerback 13.0204 -9.17468 -5.11138
upperback 8.12778 -13.9951 2.27968
thorax 3.28079 -7.85024 6.32702
lowerneck -5.25863 -4.78546 -1.13547
upperneck -7.2172 -5.33612 10.323
head -1.04498 -2.47764 3.47833
rclavicle 2.57426e-014 -6.36111e-015
rhumerus -4.82008 30.7603 -78.6515
rradius 127.85
rwrist 7.15217
rhand -26.718 13.9675
rfingers 7.12502
rthumb -0.147709 -16.0122
lclavicle 2.57426e-014 -6.36111e-015
lhumerus -2.75242 -47.5903 105.288
lradius 113.088
lwrist 47.3739
lhand -11.1685 -20.4167
lfingers 7.12502
lthumb 14.8581 9.03053
rfemur -46.7569 -8.93024 25.5006
rtibia 53.1031
rfoot -201.86 -185.526
rtoes 8.71129
lfemur 34.3195 -0.43974 -20.3443
ltibia 11.2223
lfoot -24.6938 -14.9179
ltoes -6.26898
66
root 2.39942 15.6765 -4.23055 172.84 -23.608 -180.53
lowerback 12.4503 -9.33739 -4.97738
upperback 8.00028 -14.1474 2.45106
thorax 3.48257 -7.91283 6.3354
lowerneck -4.98876 -4.76515 -1.18874
upperneck -7.0846 -5.35337 10.1167
head -1.05212 -2.50109 3.42123
rclavicle -2.97183e-014 2.10712e-014
rhumerus -3.45501 30.971 -77.8871
rradius 127.838
rwrist 7.19246
rhand -26.9105 13.7735
rfingers 7.12502
rthumb -0.333663 -16.206
lclavicle -2.97183e-014 2.10712e-014
lhumerus -2.77008 -47.9685 105.44
lradius 112.962
lwrist 47.5342
lhand -11.5987 -21.0822
lfingers 7.12502
lthumb 14.4437 8.39516
rfemur -46.6248 -8.86883 25.3206
rtibia 53.6447
rfoot -201.047 -185.15
rtoes 10.1225
lfemur 35.508 -0.718431 -20.1114
ltibia 10.1755
lfoot -23.8332 -15.2229
ltoes -6.32112
